<svg viewBox="0 0 128 130" fill="none" xmlns="http://www.w3.org/2000/svg"><path opacity=".3" fill-rule="evenodd" clip-rule="evenodd" d="M4.372 120.782h119.256c2.26 0 4.172 1.902 4.172 4.15s-1.912 4.15-4.172 4.15H4.372c-2.26 0-4.172-1.902-4.172-4.15s1.912-4.15 4.172-4.15z" fill="#AFAFAF"/><path fill-rule="evenodd" clip-rule="evenodd" d="M11.5 109.542h29.553c3.129 0 5.737 2.594 5.737 5.707 0 3.112-2.608 5.706-5.737 5.706H11.5c-3.13 0-5.737-2.594-5.737-5.706 0-3.113 2.608-5.707 5.737-5.707zM87.295 109.542h29.553c3.129 0 5.737 2.594 5.737 5.707 0 3.112-2.608 5.706-5.737 5.706H87.295c-3.13 0-5.737-2.594-5.737-5.706 0-3.113 2.434-5.707 5.737-5.707z" fill="#58CC02"/><path fill-rule="evenodd" clip-rule="evenodd" d="M116.674 120.782V18.413c0-2.42-.521-4.842-1.391-7.09-3.998-8.992-14.429-13.142-23.642-9.164-13.212 5.706-22.426 8.646-27.467 8.646-5.042 0-14.43-2.94-27.815-8.646C34.1 1.12 31.665.775 29.232.775c-9.91 0-17.906 7.955-17.906 17.811v102.542h105.348v-.346z" fill="#58CC02"/><path d="M82.254 89.484H69.04c-.695 0-1.216.691-1.043 1.383 1.043 3.112 4.173 5.188 7.65 5.188 3.476 0 6.606-2.076 7.648-5.188.174-.692-.347-1.383-1.043-1.383zm-22.079 1.383c.174-.692-.347-1.383-1.042-1.383H45.92c-.695 0-1.216.691-1.043 1.383 1.043 3.112 4.173 5.188 7.65 5.188 3.476 0 6.605-2.076 7.648-5.188zm10.605 9.856H57.394c-.695 0-1.217.692-1.043 1.384 1.043 3.112 4.172 5.187 7.649 5.187 3.477 0 6.606-2.075 7.65-5.187.347-.692-.175-1.384-.87-1.384z" fill="#89E219"/><path fill-rule="evenodd" clip-rule="evenodd" d="M20.018 100.896c2.781-2.594 7.127-2.42 9.561.346l7.65 8.127c2.607 2.767 2.433 7.09-.348 9.511-2.782 2.594-7.128 2.421-9.562-.346l-7.649-8.127c-2.434-2.594-2.26-6.917.348-9.511zM107.982 100.896c-2.782-2.594-7.128-2.42-9.561.346l-7.65 8.127c-2.607 2.767-2.433 7.09.348 9.511 2.782 2.594 7.128 2.421 9.562-.346l7.649-8.127c2.607-2.594 2.433-6.917-.348-9.511z" fill="#F49000"/><path d="M40.879 11.496l15.82 17.12c.869.864.521 2.42-.696 2.94-5.563 2.42-11.995 1.21-16.167-3.286-4.172-4.496-4.694-11.067-1.738-16.255.869-1.383 1.912-1.556 2.781-.519z" fill="#89E219"/><path fill-rule="evenodd" clip-rule="evenodd" d="M53.917 25.503c5.215 5.88 14.95 5.88 20.166 0V59.74H53.917V25.503z" fill="#89E219"/><path d="M32.882 15.646l15.472 17.12c.87.864.522 2.42-.695 2.94-5.563 2.42-11.995 1.21-16.168-3.286-4.172-4.496-4.693-11.067-1.738-16.255.87-1.383 2.434-1.556 3.13-.518z" fill="#89E219"/><path fill-rule="evenodd" clip-rule="evenodd" d="M38.271 19.278h1.217c10.952 0 19.818 8.819 19.818 19.713v13.142c0 10.894-8.866 19.713-19.818 19.713h-1.217c-10.952 0-19.818-8.82-19.818-19.713V38.99c0-10.894 8.866-19.713 19.818-19.713z" fill="#89E219"/><path d="M86.947 11.496l-15.472 17.12c-.87.864-.521 2.42.696 2.94 5.562 2.42 11.995 1.21 16.167-3.286 4.172-4.496 4.694-11.067 1.738-16.255-.695-1.383-2.26-1.556-3.129-.519z" fill="#89E219"/><path d="M94.77 15.646l-15.472 17.12c-.87.864-.522 2.42.695 2.94 5.563 2.42 11.996 1.21 16.168-3.286 4.172-4.496 4.693-11.067 1.738-16.255-.695-1.383-2.26-1.556-3.13-.518z" fill="#89E219"/><path fill-rule="evenodd" clip-rule="evenodd" d="M89.033 18.759h1.217c10.952 0 19.818 8.819 19.818 19.713v13.142c0 10.894-8.866 19.713-19.818 19.713h-1.043c-10.952 0-19.818-8.82-19.818-19.54l-.174-13.142c0-10.894 8.692-19.713 19.818-19.886z" fill="#89E219"/><path fill-rule="evenodd" clip-rule="evenodd" d="M89.43 26.348c7.997 0 14.429 6.398 14.429 14.353v9.51c0 7.955-6.432 14.353-14.428 14.353-7.997 0-14.43-6.398-14.43-14.353v-9.51c0-7.955 6.433-14.353 14.43-14.353z" fill="#fff"/><path fill-rule="evenodd" clip-rule="evenodd" d="M89.43 29.98c6.606 0 11.996 5.36 11.996 11.931v7.782c0 6.57-5.39 11.931-11.996 11.931-6.605 0-11.995-5.36-11.995-11.931V41.91c0-6.57 5.39-11.931 11.995-11.931z" fill="#122431"/><path d="M83.868 47.618c4.032 0 7.301-3.252 7.301-7.263s-3.269-7.263-7.301-7.263c-4.033 0-7.302 3.252-7.302 7.263s3.27 7.263 7.302 7.263z" fill="#fff"/><path fill-rule="evenodd" clip-rule="evenodd" d="M103.859 47.964c-.869-1.384-2.433-2.421-4.346-2.421-2.781 0-5.215 2.42-5.215 5.187 0 2.767 2.26 5.188 5.215 5.188 1.391 0 2.782-.692 3.651-1.556.348-1.384.695-2.767.695-4.324v-2.074z" fill="#fff"/><path opacity=".724" fill-rule="evenodd" clip-rule="evenodd" d="M103.371 53.945c-1.643 6.131-7.243 10.619-13.94 10.619-6.858 0-12.565-4.705-14.052-11.061 1.161-.835 2.682-1.217 4.49-1.217 1.565 0 2.782.52 4.52 1.384 2.086 1.037 4.868 2.248 7.997 2.075 4.346 0 6.606-.692 7.649-1.383a4.161 4.161 0 013.336-.417z" fill="#34A9FF"/><path fill-rule="evenodd" clip-rule="evenodd" d="M37.814 26.348c7.997 0 14.429 6.398 14.429 14.353v9.51c0 7.955-6.432 14.353-14.429 14.353S23.385 58.166 23.385 50.21v-9.51c0-7.955 6.432-14.353 14.43-14.353z" fill="#fff"/><path fill-rule="evenodd" clip-rule="evenodd" d="M37.814 29.98c6.606 0 11.995 5.36 11.995 11.931v7.782c0 6.57-5.389 11.931-11.995 11.931-6.606 0-11.995-5.36-11.995-11.931V41.91c0-6.57 5.39-11.931 11.995-11.931z" fill="#122431"/><path d="M32.251 47.618c4.033 0 7.302-3.252 7.302-7.263s-3.27-7.263-7.302-7.263-7.301 3.252-7.301 7.263 3.269 7.263 7.301 7.263z" fill="#fff"/><path fill-rule="evenodd" clip-rule="evenodd" d="M52.243 47.964c-.87-1.384-2.434-2.421-4.346-2.421-2.781 0-5.215 2.42-5.215 5.187 0 2.767 2.26 5.188 5.215 5.188 1.39 0 2.782-.692 3.65-1.556.348-1.384.696-2.767.696-4.324v-2.074z" fill="#fff"/><path opacity=".724" fill-rule="evenodd" clip-rule="evenodd" d="M51.897 53.363c-1.435 6.427-7.175 11.2-14.083 11.2-6.565 0-12.075-4.31-13.838-10.256 1.189-.546 2.555-.489 3.755.227 1.043.692 3.303 1.384 7.65 1.384 3.044 0 5.499-1.029 7.498-1.867l.498-.208c.363-.145.703-.289 1.028-.427 1.234-.523 2.254-.956 3.492-.956 1.564 0 2.913.285 4 .903z" fill="#34A9FF"/><path d="M68.868 72.191c-.522 0-1.044-.173-1.391-.518l-3.13-3.459-3.129 3.286c-.695.691-1.912.691-2.607 0-.696-.692-.696-1.903 0-2.594l3.65-3.804c.522-.52 1.391-.865 2.26-1.038.87 0 1.565.346 2.26.865l3.651 3.804c.695.692.695 1.902 0 2.594-.695.691-1.217.864-1.564.864z" fill="#3EBE00"/><path d="M53.917 54.553c.87-4.495 4.868-8.127 10.257-8.127 4.867 0 9.213 3.459 10.083 8.127v1.038c0 .865-.696 1.73-1.739 1.73-.347 0-.521 0-.869-.174-2.608-1.383-5.215-2.248-7.823-2.248-2.608 0-5.041.692-7.475 2.075-.87.52-1.739.173-2.26-.691 0-.173-.174-.519-.174-.692v-1.038z" fill="#FFC200"/><path d="M65.912 50.75c-.174 0-.348 0-.521-.174-1.217-.346-2.26-.518-3.477 0-.696.346-1.565-.172-1.913-.864-.347-.692.174-1.556.87-1.902 1.912-.692 3.65-.692 5.563 0 .695.346 1.216 1.21.869 1.902-.174.691-.695 1.037-1.39 1.037z" fill="#FFDE00"/><path d="M60.175 61.47c-1.216 0-2.433-.691-3.129-1.729-1.043-1.73-.521-3.977 1.217-5.188 3.998-2.42 8.17-2.42 11.995.173 1.739 1.21 2.086 3.459 1.043 5.188-1.217 1.73-3.477 2.075-5.215 1.038-1.043-.692-2.086-1.038-3.825.172-.695.173-1.39.346-2.086.346z" fill="#F49000"/></svg>